# xmcd CD database file
#
# Track frame offsets:
#	150
#	12480
#	24575
#	36985
#	49030
#	62637
#	75695
#	87985
#	100257
#	111435
#	123897
#	136000
#	148282
#	159992
#	171475
#	183877
#	197750
#	210635
#	223160
#	234115
#	245205
#	257942
#	270040
#	283352
#	294690
#	306135
#	316452
#	328152
#
# Disc length: 4523 seconds
#
# Revision: 3
# Processed by: cddbd v1.5.1PL0 Copyright (c) Steve Scherf et al.
# Submitted via: CDex 1.51
#
DISCID=a911a91c
DTITLE=Lester Flatt and Earl Scruggs - The Mercury Years
DYEAR=2004
DGENRE=Bluegrass
TTITLE0=God Loves His Children
TTITLE1=I'm Going To Make Heaven My Home
TTITLE2=We'll Meet Again Sweetheart
TTITLE3=My Cabin In Caroline
TTITLE4=Baby Blue Eyes
TTITLE5=Bouquet In Heaven
TTITLE6=Down The Road
TTITLE7=Why Don't You Tell Her So
TTITLE8=I'll Never Shed Another Tear
TTITLE9=No Mother Or Dad
TTITLE10=Is It Too Late Now?
TTITLE11=Foggy Mountain Breakdown
TTITLE12=I'll Be Going To Heaven Sometime
TTITLE13=So Happy I'll Be
TTITLE14=My Little Girl In Tennessee
TTITLE15=I'll Never Love Another
TTITLE16=Doin' My Time
TTITLE17=Pike County Breakdown
TTITLE18=Cora Is Gone
TTITLE19=Preachin' , Prayin', Singin'
TTITLE20=Pain In My Heart
TTITLE21=Roll In My Sweet Baby's Arms
TTITLE22=Back To The Cross
TTITLE23=Farewell Blues
TTITLE24=Salty Dog Blues
TTITLE25=Take Me In A Lifeboat
TTITLE26=Will The Roses Bloom (Where She Lies Sleeping)
TTITLE27=I'll Just Pretend
EXTD=Bear Family Records - BCD 15472-1\n\nDisc 1 of 4 Volume Set YEAR: 2004
EXTT0=
EXTT1=
EXTT2=
EXTT3=
EXTT4=
EXTT5=
EXTT6=
EXTT7=
EXTT8=
EXTT9=
EXTT10=
EXTT11=
EXTT12=
EXTT13=
EXTT14=
EXTT15=
EXTT16=
EXTT17=
EXTT18=
EXTT19=
EXTT20=
EXTT21=
EXTT22=
EXTT23=
EXTT24=
EXTT25=
EXTT26=
EXTT27=
PLAYORDER=
